<svg width="52" height="52" viewBox="0 0 52 52" fill="none" xmlns="http://www.w3.org/2000/svg">
<mask id="path-1-outside-1_1_29" maskUnits="userSpaceOnUse" x="0" y="0" width="52" height="52" fill="black">
<rect fill="white" width="52" height="52"/>
<path d="M26 1C39.8071 1 51 12.1929 51 26C51 39.8071 39.8071 51 26 51C12.1929 51 1 39.8071 1 26C1 12.1929 12.1929 1 26 1ZM26 2C12.7452 2 2 12.7452 2 26C2 39.2548 12.7452 50 26 50C39.2548 50 50 39.2548 50 26C50 12.7452 39.2548 2 26 2ZM34 33.4893V17H35V35H34.3506L34.1934 35.1484L34.0527 35H17V34H33.1055L17 17L17.7256 16.3125L34 33.4893Z"/>
</mask>
<path d="M26 1C39.8071 1 51 12.1929 51 26C51 39.8071 39.8071 51 26 51C12.1929 51 1 39.8071 1 26C1 12.1929 12.1929 1 26 1ZM26 2C12.7452 2 2 12.7452 2 26C2 39.2548 12.7452 50 26 50C39.2548 50 50 39.2548 50 26C50 12.7452 39.2548 2 26 2ZM34 33.4893V17H35V35H34.3506L34.1934 35.1484L34.0527 35H17V34H33.1055L17 17L17.7256 16.3125L34 33.4893Z" fill="black"/>
<path d="M34 33.4893L33.2741 34.177L35 35.9987V33.4893H34ZM34 17V16H33V17H34ZM35 17H36V16H35V17ZM35 35V36H36V35H35ZM34.3506 35V34H33.9531L33.6641 34.2729L34.3506 35ZM34.1934 35.1484L33.4674 35.8362L34.154 36.5609L34.8798 35.8756L34.1934 35.1484ZM34.0527 35L34.7787 34.3123L34.4829 34H34.0527V35ZM17 35H16V36H17V35ZM17 34V33H16V34H17ZM33.1055 34V35H35.4304L33.8314 33.3123L33.1055 34ZM17 17L16.3122 16.2741L15.5863 16.9619L16.2741 17.6877L17 17ZM17.7256 16.3125L18.4515 15.6247L17.7637 14.8988L17.0378 15.5866L17.7256 16.3125ZM26 1V2C39.2548 2 50 12.7452 50 26H51H52C52 11.6406 40.3594 0 26 0V1ZM51 26H50C50 39.2548 39.2548 50 26 50V51V52C40.3594 52 52 40.3594 52 26H51ZM26 51V50C12.7452 50 2 39.2548 2 26H1H0C0 40.3594 11.6406 52 26 52V51ZM1 26H2C2 12.7452 12.7452 2 26 2V1V0C11.6406 0 0 11.6406 0 26H1ZM26 2V1C12.1929 1 1 12.1929 1 26H2H3C3 13.2975 13.2975 3 26 3V2ZM2 26H1C1 39.8071 12.1929 51 26 51V50V49C13.2975 49 3 38.7025 3 26H2ZM26 50V51C39.8071 51 51 39.8071 51 26H50H49C49 38.7025 38.7025 49 26 49V50ZM50 26H51C51 12.1929 39.8071 1 26 1V2V3C38.7025 3 49 13.2975 49 26H50ZM34 33.4893H35V17H34H33V33.4893H34ZM34 17V18H35V17V16H34V17ZM35 17H34V35H35H36V17H35ZM35 35V34H34.3506V35V36H35V35ZM34.3506 35L33.6641 34.2729L33.5069 34.4213L34.1934 35.1484L34.8798 35.8756L35.0371 35.7271L34.3506 35ZM34.1934 35.1484L34.9193 34.4607L34.7787 34.3123L34.0527 35L33.3268 35.6877L33.4674 35.8362L34.1934 35.1484ZM34.0527 35V34H17V35V36H34.0527V35ZM17 35H18V34H17H16V35H17ZM17 34V35H33.1055V34V33H17V34ZM33.1055 34L33.8314 33.3123L17.7259 16.3123L17 17L16.2741 17.6877L32.3795 34.6877L33.1055 34ZM17 17L17.6878 17.7259L18.4134 17.0384L17.7256 16.3125L17.0378 15.5866L16.3122 16.2741L17 17ZM17.7256 16.3125L16.9997 17.0003L33.2741 34.177L34 33.4893L34.7259 32.8015L18.4515 15.6247L17.7256 16.3125Z" fill="black" mask="url(#path-1-outside-1_1_29)"/>
</svg>
